<?xml version="1.0" encoding="UTF-8" standalone="no"?>
<!-- Generator: Adobe Illustrator 16.0.0, SVG Export Plug-In . SVG Version: 6.00 Build 0)  -->

<svg
   xmlns:dc="http://purl.org/dc/elements/1.1/"
   xmlns:cc="http://creativecommons.org/ns#"
   xmlns:rdf="http://www.w3.org/1999/02/22-rdf-syntax-ns#"
   xmlns:svg="http://www.w3.org/2000/svg"
   xmlns="http://www.w3.org/2000/svg"
   xmlns:sodipodi="http://sodipodi.sourceforge.net/DTD/sodipodi-0.dtd"
   xmlns:inkscape="http://www.inkscape.org/namespaces/inkscape"
   version="1.1"
   id="Capa_1"
   x="0px"
   y="0px"
   width="510px"
   height="510px"
   viewBox="0 0 510 510"
   style="enable-background:new 0 0 510 510;"
   xml:space="preserve"
   inkscape:version="0.91 r13725"
   sodipodi:docname="shopping-cart.svg"
   inkscape:export-filename="W:\Local\Programacion\Angular\mcesta\src\assets\iconos\256.png"
   inkscape:export-xdpi="45.176472"
   inkscape:export-ydpi="45.176472"><metadata
   id="metadata42"><rdf:RDF><cc:Work
       rdf:about=""><dc:format>image/svg+xml</dc:format><dc:type
         rdf:resource="http://purl.org/dc/dcmitype/StillImage" /></cc:Work></rdf:RDF></metadata><defs
   id="defs40" /><sodipodi:namedview
   pagecolor="#ffffff"
   bordercolor="#666666"
   borderopacity="1"
   objecttolerance="10"
   gridtolerance="10"
   guidetolerance="10"
   inkscape:pageopacity="0"
   inkscape:pageshadow="2"
   inkscape:window-width="1776"
   inkscape:window-height="1058"
   id="namedview38"
   showgrid="false"
   inkscape:zoom="0.4627451"
   inkscape:cx="-143.70763"
   inkscape:cy="250.67796"
   inkscape:window-x="136"
   inkscape:window-y="-8"
   inkscape:window-maximized="1"
   inkscape:current-layer="Capa_1" />
<g
   id="g3">
	<g
   id="shopping-cart">
		<path
   d="M153,408c-28.05,0-51,22.95-51,51s22.95,51,51,51s51-22.95,51-51S181.05,408,153,408z M0,0v51h51l91.8,193.8L107.1,306    c-2.55,7.65-5.1,17.85-5.1,25.5c0,28.05,22.95,51,51,51h306v-51H163.2c-2.55,0-5.1-2.55-5.1-5.1v-2.551l22.95-43.35h188.7    c20.4,0,35.7-10.2,43.35-25.5L504.9,89.25c5.1-5.1,5.1-7.65,5.1-12.75c0-15.3-10.2-25.5-25.5-25.5H107.1L84.15,0H0z M408,408    c-28.05,0-51,22.95-51,51s22.95,51,51,51s51-22.95,51-51S436.05,408,408,408z"
   id="path6" />
	</g>
</g>
<g
   id="g8">
</g>
<g
   id="g10">
</g>
<g
   id="g12">
</g>
<g
   id="g14">
</g>
<g
   id="g16">
</g>
<g
   id="g18">
</g>
<g
   id="g20">
</g>
<g
   id="g22">
</g>
<g
   id="g24">
</g>
<g
   id="g26">
</g>
<g
   id="g28">
</g>
<g
   id="g30">
</g>
<g
   id="g32">
</g>
<g
   id="g34">
</g>
<g
   id="g36">
</g>
<path
   style="fill:#d90000;fill-opacity:1;fill-rule:nonzero;stroke-width:5;stroke-miterlimit:4;stroke-dasharray:none"
   d="m 135.44247,378.06164 c -12.76976,-4.52176 -27.49159,-21.32805 -30.81387,-35.17686 -4.15886,-17.33609 -0.31318,-29.53855 20.81613,-66.05021 18.29328,-31.61099 18.48706,-32.09914 15.36407,-38.70221 -1.73958,-3.6781 -22.39655,-47.28755 -45.904367,-96.9099 L 52.162945,51 26.513677,51 0.86440678,51 l 0,-24.851695 0,-24.8516948 41.59957622,0.028863 41.599576,0.028863 10.731211,24.7676117 10.73121,24.767612 193.48488,0.595473 c 152.33704,0.468837 194.5142,1.183569 198.32482,3.360807 5.89908,3.370495 11.36771,13.433112 11.36771,20.917302 0,3.040741 -5.16909,14.51541 -11.48689,25.499269 -6.31777,10.98385 -28.40393,50.56057 -49.08034,87.94826 -20.67642,37.38771 -40.53292,71.32547 -44.12555,75.41724 -12.70369,14.4687 -10.91216,14.24428 -123.25436,15.43989 l -101.52766,1.08051 -11.40773,21.91569 c -6.74945,12.96658 -10.86301,23.33522 -10.07377,25.39195 1.20804,3.1481 15.48946,3.47625 151.29344,3.47625 l 149.95947,0 0,24.8517 0,24.85169 -157.21398,-0.1705 c -133.73825,-0.14522 -158.57724,-0.65332 -166.34355,-3.40334 l 0,-1.1e-4 z"
   id="path4170"
   inkscape:connector-curvature="0" /><path
   style="fill:#d90000;fill-opacity:1;fill-rule:nonzero;stroke-width:5;stroke-miterlimit:4;stroke-dasharray:none"
   d="m 390.44247,505.56163 c -12.34558,-4.37153 -27.33972,-21.20149 -30.66925,-34.42427 -5.08426,-20.19143 3.75618,-42.4054 21.56656,-54.19175 20.43517,-13.52336 52.74608,-7.24458 66.56743,12.93564 7.89553,11.52807 9.40487,16.56076 9.23488,30.79243 -0.4008,33.55535 -34.29173,56.36349 -66.69962,44.88795 z"
   id="path4172"
   inkscape:connector-curvature="0" /><path
   style="fill:#ae00d9;fill-opacity:1;fill-rule:evenodd;stroke-width:5;stroke-miterlimit:4;stroke-dasharray:none"
   d="m 135.44247,505.56163 c -12.34558,-4.37153 -27.33972,-21.20149 -30.66925,-34.42427 -5.084264,-20.19143 3.75618,-42.4054 21.56656,-54.19175 20.43517,-13.52336 52.74608,-7.24458 66.56743,12.93564 7.89553,11.52807 9.40487,16.56076 9.23488,30.79243 -0.4008,33.55535 -34.29173,56.36349 -66.69962,44.88795 z"
   id="path4174"
   inkscape:connector-curvature="0" /><path
   style="fill:#ae00d9;fill-opacity:1;fill-rule:evenodd;stroke-width:5;stroke-miterlimit:4;stroke-dasharray:none"
   d="m 179.14831,379.59877 c -26.97058,-0.75177 -44.84532,-2.156 -47.54238,-3.73491 -7.69144,-4.50271 -20.23099,-18.86961 -23.66567,-27.11436 -1.84087,-4.41894 -3.34704,-12.94205 -3.34704,-18.94028 0,-10.79028 7.47998,-27.41527 33.68928,-74.87775 L 144.40637,243.84176 98.927583,147.96113 53.448797,52.080508 27.156601,51.47374 0.86440678,50.866972 l 0,-24.831844 0,-24.8318426 L 42.359394,1.790202 83.854382,2.3771186 94.075138,26.148305 104.2959,49.919492 l 22.29908,0.590264 c 12.2645,0.324647 100.18983,1.297105 195.38961,2.161017 190.35294,1.727405 177.82915,0.694793 183.87607,15.160956 2.64951,6.338539 2.51214,8.144039 -1.27036,16.694992 -5.01589,11.339241 -63.64378,116.715009 -84.74667,152.320739 -16.73202,28.231 -20.30717,32.97824 -27.69473,36.77437 -6.4587,3.31882 -77.66064,6.19375 -157.04847,6.3412 l -56.42076,0.10477 -11.12616,22.15042 c -12.14231,24.17344 -12.75841,26.45258 -7.67761,28.40227 1.88005,0.72145 69.95208,1.31171 151.27119,1.31171 l 147.85291,0 0,24.8517 0,24.85169 -118.31568,-0.41606 c -65.07362,-0.22885 -137.76483,-0.95819 -161.53601,-1.62076 z"
   id="path4184"
   inkscape:connector-curvature="0" /><path
   style="fill:#ae00d9;fill-opacity:1;fill-rule:evenodd;stroke-width:5;stroke-miterlimit:4;stroke-dasharray:none"
   d="m 388.76695,503.58834 c -9.24785,-4.79237 -20.2299,-15.82708 -25.04106,-25.16115 -12.48018,-24.21259 2.81558,-57.83226 29.89294,-65.70386 32.61659,-9.4819 65.98332,17.15092 62.59674,49.96377 -1.9397,18.79383 -10.67714,31.3686 -27.92397,40.18766 -9.94628,5.08597 -30.3755,5.4548 -39.52465,0.71358 z"
   id="path4186"
   inkscape:connector-curvature="0" /></svg>